PathFileType  4	(X/Y/Z) C:\Users\antoi\Documents\MyRepositories\mobilecap\ResultsAnalysis
DataRate	CameraRate	NumFrames	NumMarkers	Units	OrigDataRate	OrigDataStartFrame	OrigNumFrames
100.0	100.0	4	55	mm	100.0	324	517
Frame#	Time	r_knee			r_shank_antsup			r_ankle			r_calc			r_5meta			r_toe			L_knee			L_shank_antsup			L_ankle			L_calc			L_5meta			L_toe			r_mknee			r_mankle			L_mknee			L_mankle			r_sh2			r_sh3			r_sh4			L_sh2			L_sh3			r_thigh1			r_thigh2			r_thigh3			r_thigh4			r_thigh5			L_thigh1			L_thigh2			L_thigh3			L_thigh4			r.ASIS			r.PSIS			L.ASIS			L.PSIS			C7			R_Shoulder			L_Shoulder			R_Sternum			L_Sternum			R_humerus			R_elbow_med			R_elbow_lat			R_forearm			R_wrist_radius			R_wrist_ulna			L_humerus			L_elbow_med			L_elbow_lat			L_forearm			L_wrist_radius			L_wrist_ulna			R_HJC			L_HJC			R_HJC_reg			L_HJC_reg			
		X1	Y1	Z1	X2	Y2	Z2	X3	Y3	Z3	X4	Y4	Z4	X5	Y5	Z5	X6	Y6	Z6	X7	Y7	Z7	X8	Y8	Z8	X9	Y9	Z9	X10	Y10	Z10	X11	Y11	Z11	X12	Y12	Z12	X13	Y13	Z13	X14	Y14	Z14	X15	Y15	Z15	X16	Y16	Z16	X17	Y17	Z17	X18	Y18	Z18	X19	Y19	Z19	X20	Y20	Z20	X21	Y21	Z21	X22	Y22	Z22	X23	Y23	Z23	X24	Y24	Z24	X25	Y25	Z25	X26	Y26	Z26	X27	Y27	Z27	X28	Y28	Z28	X29	Y29	Z29	X30	Y30	Z30	X31	Y31	Z31	X32	Y32	Z32	X33	Y33	Z33	X34	Y34	Z34	X35	Y35	Z35	X36	Y36	Z36	X37	Y37	Z37	X38	Y38	Z38	X39	Y39	Z39	X40	Y40	Z40	X41	Y41	Z41	X42	Y42	Z42	X43	Y43	Z43	X44	Y44	Z44	X45	Y45	Z45	X46	Y46	Z46	X47	Y47	Z47	X48	Y48	Z48	X49	Y49	Z49	X50	Y50	Z50	X51	Y51	Z51	X52	Y52	Z52	X53	Y53	Z53	X54	Y54	Z54	X55	Y55	Z55	

324	3.23000000	-216.35009	500.46996	-434.18753	-189.51547	409.40809	-437.80218	-283.71883	93.64554	-433.75837	-343.45308	57.87259	-478.22852	-162.67189	43.68338	-389.96135	-129.40982	70.27178	-446.31908	-216.88495	503.57060	-764.98435	-189.25763	420.65490	-758.52817	-274.76138	97.82454	-772.73237	-345.23464	50.26663	-725.33866	-167.69934	41.01902	-813.63144	-121.04843	64.90373	-756.87532	-230.54064	483.96006	-551.87382	-261.28854	111.01617	-509.76432	-228.39410	490.94939	-646.23067	-255.07614	103.74630	-691.76709	-203.07798	296.38113	-434.91047	-251.87957	415.99314	-395.57517	-271.15923	303.18421	-388.77435	-267.75148	444.01307	-801.46225	-283.32337	322.30698	-810.69727	-140.63880	778.82005	-430.93861	-143.70316	667.51957	-436.13511	-197.57802	642.24692	-403.82892	-251.73701	776.84739	-410.11933	-247.92359	660.97287	-419.33252	-122.15791	748.23209	-764.20703	-123.33467	607.76758	-749.23625	-226.55145	744.77679	-807.67233	-229.36667	612.76488	-779.54266	-104.62194	963.86517	-476.74381	-307.80516	1011.58947	-565.68794	-101.72216	962.57882	-733.62186	-304.07544	1011.35665	-658.78135	-274.18640	1462.97312	-610.68656	-212.00358	1431.19436	-442.13523	-184.89737	1433.72470	-760.95081	-147.73191	1391.29544	-579.52058	-147.66075	1393.73631	-624.92443	-172.37857	1300.18739	-392.34332	-259.71525	1098.31451	-426.14917	-243.09944	1109.35237	-360.89106	-181.47048	1048.48717	-346.63529	-123.12225	889.36526	-384.28895	-149.96433	888.00650	-341.00028	-152.58977	1291.99700	-814.72805	-237.62013	1095.25813	-780.84141	-203.47731	1106.00656	-853.07900	-148.60939	1051.04912	-852.93877	-97.31421	881.93077	-817.65102	-122.89451	882.67964	-863.47166	-195.21213	883.30106	-505.94836	-189.74866	882.90315	-695.43169	-185.08387	891.30770	-516.13451	-178.29623	890.88389	-685.55037	
325	3.24000000	-216.34856	500.49130	-434.18420	-189.52056	409.39976	-437.79035	-283.71842	93.72146	-433.60699	-343.44942	57.88065	-478.23977	-162.63147	43.66442	-390.03595	-129.40344	70.27659	-446.30194	-216.88816	503.57209	-764.97031	-189.27987	420.65808	-758.52124	-274.78513	97.82997	-772.73172	-345.24798	50.30239	-725.39045	-167.68830	41.03532	-813.64225	-121.06493	64.91366	-756.90360	-230.48315	483.90717	-551.82379	-261.28613	111.01903	-509.76401	-228.41918	490.92143	-646.24906	-255.06099	103.72741	-691.76670	-203.10101	296.42171	-434.90786	-251.90341	415.96801	-395.50245	-271.21055	303.13266	-388.75020	-267.75425	444.01519	-801.46533	-283.32486	322.31857	-810.68916	-140.69397	778.81424	-430.88375	-143.72210	667.54034	-436.08948	-197.56448	642.26641	-403.81180	-251.74113	776.86574	-410.11686	-247.94178	660.96907	-419.33687	-122.32580	748.14886	-764.38970	-123.32788	607.82641	-749.29850	-226.54786	744.77255	-807.67156	-229.36795	612.76379	-779.54579	-104.60822	963.86370	-476.68938	-307.74584	1011.54393	-565.62612	-101.70386	962.56978	-733.63593	-304.04643	1011.35704	-658.78034	-274.13496	1462.98435	-610.70637	-211.97476	1431.22113	-442.12617	-184.85684	1433.73922	-760.95885	-147.65734	1391.31228	-579.55811	-147.65114	1393.72304	-624.91290	-172.35758	1300.17871	-392.33198	-259.69424	1098.26787	-426.12588	-243.11061	1109.37425	-360.86288	-181.52415	1048.46291	-346.54893	-123.16168	889.36113	-384.24607	-149.99108	887.99468	-340.97965	-152.56788	1291.99869	-814.71293	-237.58154	1095.25233	-780.83715	-203.44648	1106.01668	-853.08736	-148.57423	1051.03127	-852.92226	-97.27705	881.96318	-817.71065	-122.88010	882.68033	-863.47397	-195.17299	883.28414	-505.92641	-189.71623	882.89294	-695.40996	-185.01123	891.21111	-516.09725	-178.28137	890.87115	-685.56106	
326	3.25000000	-216.33747	500.50672	-434.17370	-189.51721	409.39703	-437.79535	-283.69464	93.73589	-433.56222	-343.44457	57.87972	-478.23641	-162.62433	43.61606	-390.04979	-129.41597	70.25953	-446.29961	-216.89348	503.56081	-764.99828	-189.29521	420.65998	-758.52962	-274.79749	97.84488	-772.76765	-345.25645	50.30727	-725.44347	-167.68076	41.04475	-813.65802	-121.07588	64.89792	-756.91054	-230.48708	483.88330	-551.85712	-261.28535	111.00997	-509.76604	-228.39286	490.95387	-646.24170	-255.08494	103.76192	-691.76713	-203.13449	296.45687	-434.89046	-251.89148	415.99901	-395.52914	-271.19996	303.13231	-388.75953	-267.76073	444.01262	-801.46378	-283.31980	322.27978	-810.68253	-140.77797	778.80907	-430.80012	-143.69236	667.50298	-436.08916	-197.57403	642.21091	-403.82954	-251.74941	776.84514	-410.14894	-247.94782	660.94197	-419.39712	-122.32000	748.14018	-764.39552	-123.32931	607.81540	-749.30622	-226.54593	744.75939	-807.67229	-229.37490	612.75202	-779.53811	-104.59480	963.85431	-476.69215	-307.76970	1011.54024	-565.65518	-101.67236	962.53978	-733.69299	-304.02468	1011.35308	-658.76194	-274.08627	1462.97764	-610.70015	-211.94828	1431.23074	-442.11382	-184.83018	1433.73680	-760.94715	-147.56613	1391.34306	-579.54563	-147.62987	1393.74021	-624.90654	-172.34168	1300.16702	-392.33223	-259.67726	1098.22617	-426.10510	-243.12912	1109.39608	-360.83584	-181.55892	1048.47659	-346.48295	-123.23402	889.35350	-384.15370	-150.04870	887.96687	-340.94123	-152.53694	1292.00321	-814.71257	-237.55235	1095.24079	-780.83625	-203.42667	1106.01919	-853.09614	-148.56592	1051.02218	-852.91500	-97.26065	881.97223	-817.72657	-122.86584	882.68144	-863.48026	-195.16599	883.27581	-505.94023	-189.71185	882.87718	-695.42384	-185.04043	891.17275	-516.15079	-178.22275	890.83203	-685.64715	
327	3.26000000	-216.34122	500.47915	-434.21610	-189.51495	409.38360	-437.80723	-283.67238	93.65056	-433.64527	-343.44469	57.86400	-478.22912	-162.64161	43.58595	-390.04075	-129.42055	70.24061	-446.32410	-216.89781	503.54538	-765.03262	-189.29135	420.65387	-758.52498	-274.78374	97.85667	-772.82770	-345.24635	50.25292	-725.42924	-167.69768	41.01482	-813.64965	-121.06426	64.86637	-756.89238	-230.56536	483.91097	-551.96799	-261.28981	110.99147	-509.76675	-228.39534	490.95322	-646.24072	-255.10429	103.78494	-691.76578	-203.13239	296.44743	-434.88358	-251.84779	415.99855	-395.61496	-271.11371	303.21023	-388.80542	-267.76108	444.00288	-801.46746	-283.30361	322.23872	-810.68630	-140.82793	778.80213	-430.74653	-143.69519	667.47135	-436.09176	-197.60108	642.14309	-403.87874	-251.75507	776.80352	-410.19671	-247.95243	660.90088	-419.48208	-122.27986	748.17106	-764.35270	-123.33644	607.73818	-749.25846	-226.54720	744.74593	-807.67656	-229.38202	612.73458	-779.53074	-104.56505	963.83657	-476.73464	-307.80077	1011.55140	-565.71729	-101.63014	962.50133	-733.73550	-304.00136	1011.35324	-658.73584	-274.04646	1462.96291	-610.67712	-211.93674	1431.22321	-442.10363	-184.79877	1433.73072	-760.92729	-147.54758	1391.34859	-579.50638	-147.60843	1393.76500	-624.90723	-172.32586	1300.15564	-392.32304	-259.69356	1098.25261	-426.10525	-243.15331	1109.39602	-360.82691	-181.58604	1048.52168	-346.45375	-123.32775	889.34181	-384.01354	-150.12822	887.94402	-340.86990	-152.50911	1292.02078	-814.73356	-237.54032	1095.24865	-780.83962	-203.41133	1106.01767	-853.10579	-148.55949	1051.02188	-852.92279	-97.25843	881.96545	-817.72912	-122.85219	882.68110	-863.50197	-195.16001	883.26879	-505.96531	-189.70947	882.85979	-695.44900	-185.07497	891.16263	-516.23621	-178.15187	890.80154	-685.72833	
